<svg width="54" height="67" viewBox="0 0 54 67" fill="none" xmlns="http://www.w3.org/2000/svg">
<g id="Group 123">
<g id="Group">
<g id="Group_2">
<path id="Vector" d="M39.7061 4.51912H31.7327C31.2994 3.2361 30.0851 2.30943 28.6576 2.30943H26.3904C25.3669 0.933121 23.7458 0.0996094 22.0284 0.0996094C20.311 0.0996094 18.6899 0.933121 17.6664 2.3093H15.3992C13.9718 2.3093 12.7575 3.23597 12.3241 4.51899H4.35038C1.95154 4.51899 0 6.47066 0 8.86938V55.2737C0 57.6725 1.95166 59.624 4.35038 59.624H26.4477C27.0197 59.624 27.4835 59.1603 27.4835 58.5882C27.4835 58.0162 27.0198 57.5523 26.4477 57.5523H4.35038C3.09385 57.5523 2.07157 56.5301 2.07157 55.2735V8.8695C2.07157 7.61297 3.09385 6.59069 4.35038 6.59069H12.1537V9.97435C12.1537 10.5463 12.6174 11.0102 13.1895 11.0102H30.8673C31.4393 11.0102 31.9032 10.5465 31.9032 9.97435V6.59069H39.7061C40.9626 6.59069 41.9849 7.61297 41.9849 8.8695V38.7008C41.9849 39.2728 42.4486 39.7367 43.0207 39.7367C43.5927 39.7367 44.0566 39.273 44.0566 38.7008V8.8695C44.0565 6.47066 42.1049 4.51912 39.7061 4.51912ZM29.8316 8.9385H14.2254V5.55884C14.2254 5.55742 14.2255 5.55626 14.2255 5.55484C14.2255 5.55419 14.2254 5.55342 14.2254 5.5529C14.2265 4.90635 14.7525 4.38087 15.3992 4.38087H18.2219C18.5906 4.38087 18.9316 4.18486 19.1171 3.86598C19.7349 2.80481 20.8232 2.17118 22.0284 2.17118C23.2337 2.17118 24.322 2.80481 24.9397 3.86598C25.1251 4.18473 25.4662 4.38087 25.835 4.38087H28.6576C29.3035 4.38087 29.8291 4.90532 29.8315 5.55083C29.8315 5.55226 29.8313 5.55342 29.8313 5.55484C29.8313 5.55755 29.8317 5.56014 29.8317 5.56285V8.9385H29.8316Z" fill="white"/>
</g>
</g>
<g id="Group_3">
<g id="Group_4">
<path id="Vector_2" d="M26.4473 53.133H6.491V11.0101H8.77021C9.3422 11.0101 9.80606 10.5464 9.80606 9.97427C9.80606 9.40214 9.34233 8.93842 8.77021 8.93842H5.45528C4.88328 8.93842 4.41943 9.40214 4.41943 9.97427V54.1688C4.41943 54.7408 4.88316 55.2047 5.45528 55.2047H26.4475C27.0195 55.2047 27.4833 54.741 27.4833 54.1688C27.4832 53.5967 27.0195 53.133 26.4473 53.133Z" fill="white"/>
</g>
</g>
<g id="Group_5">
<g id="Group_6">
<path id="Vector_3" d="M38.6011 8.93842H35.2866C34.7146 8.93842 34.2507 9.40214 34.2507 9.97427C34.2507 10.5464 34.7145 11.0101 35.2866 11.0101H37.5654V38.7005C37.5654 39.2725 38.0291 39.7363 38.6012 39.7363C39.1734 39.7363 39.6371 39.2726 39.6371 38.7005V9.97427C39.637 9.40227 39.1731 8.93842 38.6011 8.93842Z" fill="white"/>
</g>
</g>
<g id="Group_7">
<g id="Group_8">
<path id="Vector_4" d="M31.9722 22.197H20.9237C20.3517 22.197 19.8878 22.6607 19.8878 23.2328C19.8878 23.8049 20.3515 24.2687 20.9237 24.2687H31.9722C32.5442 24.2687 33.0081 23.8049 33.0081 23.2328C33.0081 22.6607 32.5444 22.197 31.9722 22.197Z" fill="white"/>
</g>
</g>
<g id="Group_9">
<g id="Group_10">
<path id="Vector_5" d="M28.6577 17.7774H20.9237C20.3517 17.7774 19.8878 18.2411 19.8878 18.8133C19.8878 19.3854 20.3515 19.8491 20.9237 19.8491H28.6577C29.2297 19.8491 29.6936 19.3854 29.6936 18.8133C29.6936 18.2411 29.2297 17.7774 28.6577 17.7774Z" fill="white"/>
</g>
</g>
<g id="Group_11">
<g id="Group_12">
<path id="Vector_6" d="M47.2517 58.04L42.9516 53.7399V46.8032C42.9516 46.2312 42.4879 45.7673 41.9157 45.7673C41.3437 45.7673 40.8799 46.2311 40.8799 46.8032V54.1689C40.8799 54.4436 40.9889 54.7071 41.1833 54.9012L45.7868 59.5047C45.989 59.7069 46.2541 59.8081 46.5191 59.8081C46.7841 59.8081 47.0492 59.707 47.2514 59.5047C47.6562 59.1003 47.6562 58.4444 47.2517 58.04Z" fill="white"/>
</g>
</g>
<g id="Group_13">
<g id="Group_14">
<path id="Vector_7" d="M41.9157 42.0845C35.2523 42.0845 29.8313 47.5055 29.8313 54.169C29.8313 60.8324 35.2524 66.2534 41.9157 66.2534C48.579 66.2534 54.0002 60.8324 54.0002 54.169C54.0002 47.5055 48.5792 42.0845 41.9157 42.0845ZM41.9157 64.1818C36.3946 64.1818 31.9029 59.6901 31.9029 54.169C31.9029 48.6478 36.3946 44.1561 41.9157 44.1561C47.4369 44.1561 51.9286 48.6478 51.9286 54.169C51.9286 59.6901 47.437 64.1818 41.9157 64.1818Z" fill="white"/>
</g>
</g>
<g id="Group_15">
<g id="Group_16">
<path id="Vector_8" d="M16.7268 21.2314C16.2318 20.9449 15.5981 21.1139 15.3115 21.6092C15.1017 21.9717 14.712 22.1968 14.294 22.1968C13.6467 22.1968 13.12 21.6702 13.12 21.0228C13.12 20.3755 13.6467 19.8489 14.294 19.8489C14.866 19.8489 15.3298 19.3851 15.3298 18.813C15.3298 18.2409 14.8661 17.7772 14.294 17.7772C12.5044 17.7772 11.0485 19.2331 11.0485 21.0227C11.0485 22.8123 12.5044 24.2682 14.294 24.2682C15.4488 24.2682 16.5258 23.6468 17.1046 22.6463C17.3912 22.1515 17.222 21.5178 16.7268 21.2314Z" fill="white"/>
</g>
</g>
<g id="Group_17">
<g id="Group_18">
<path id="Vector_9" d="M31.9722 33.2455H20.9237C20.3517 33.2455 19.8878 33.7092 19.8878 34.2813C19.8878 34.8535 20.3515 35.3172 20.9237 35.3172H31.9722C32.5442 35.3172 33.0081 34.8535 33.0081 34.2813C33.0081 33.7092 32.5444 33.2455 31.9722 33.2455Z" fill="white"/>
</g>
</g>
<g id="Group_19">
<g id="Group_20">
<path id="Vector_10" d="M28.6577 28.8261H20.9237C20.3517 28.8261 19.8878 29.2898 19.8878 29.862C19.8878 30.4341 20.3515 30.8978 20.9237 30.8978H28.6577C29.2297 30.8978 29.6936 30.4341 29.6936 29.862C29.6936 29.2898 29.2297 28.8261 28.6577 28.8261Z" fill="white"/>
</g>
</g>
<g id="Group_21">
<g id="Group_22">
<path id="Vector_11" d="M16.7268 32.2798C16.2318 31.9932 15.5981 32.1622 15.3115 32.6576C15.1017 33.0202 14.712 33.2452 14.294 33.2452C13.6467 33.2452 13.12 32.7186 13.12 32.0713C13.12 31.424 13.6467 30.8976 14.294 30.8976C14.866 30.8976 15.3298 30.4338 15.3298 29.8617C15.3298 29.2896 14.8661 28.8259 14.294 28.8259C12.5044 28.8259 11.0485 30.2818 11.0485 32.0714C11.0485 33.861 12.5044 35.3169 14.294 35.3169C15.4488 35.3169 16.5258 34.6955 17.1046 33.695C17.3912 33.2 17.2221 32.5664 16.7268 32.2798Z" fill="white"/>
</g>
</g>
<g id="Group_23">
<g id="Group_24">
<path id="Vector_12" d="M28.6577 44.2941H20.9237C20.3517 44.2941 19.8878 44.7579 19.8878 45.33C19.8878 45.9021 20.3515 46.3658 20.9237 46.3658H28.6577C29.2297 46.3658 29.6936 45.9021 29.6936 45.33C29.6936 44.7579 29.2297 44.2941 28.6577 44.2941Z" fill="white"/>
</g>
</g>
<g id="Group_25">
<g id="Group_26">
<path id="Vector_13" d="M28.6577 39.8747H20.9237C20.3517 39.8747 19.8878 40.3384 19.8878 40.9105C19.8878 41.4827 20.3515 41.9464 20.9237 41.9464H28.6577C29.2297 41.9464 29.6936 41.4827 29.6936 40.9105C29.6936 40.3384 29.2297 39.8747 28.6577 39.8747Z" fill="white"/>
</g>
</g>
<g id="Group_27">
<g id="Group_28">
<path id="Vector_14" d="M16.7268 43.3285C16.2318 43.0418 15.5981 43.2111 15.3115 43.7063C15.1017 44.0689 14.712 44.294 14.294 44.294C13.6467 44.294 13.12 43.7673 13.12 43.12C13.12 42.4727 13.6467 41.946 14.294 41.946C14.866 41.946 15.3298 41.4823 15.3298 40.9102C15.3298 40.3381 14.8661 39.8743 14.294 39.8743C12.5044 39.8743 11.0485 41.3302 11.0485 43.1199C11.0485 44.9095 12.5044 46.3655 14.294 46.3655C15.4488 46.3655 16.5258 45.744 17.1046 44.7436C17.3912 44.2487 17.2221 43.6151 16.7268 43.3285Z" fill="white"/>
</g>
</g>
<g id="Group_29">
<g id="Group_30">
<path id="Vector_15" d="M22.0395 4.5191H22.0283C21.4563 4.5191 20.998 4.98283 20.998 5.55495C20.998 6.12695 21.4672 6.5908 22.0393 6.5908C22.6113 6.5908 23.0752 6.12708 23.0752 5.55495C23.0753 4.98283 22.6116 4.5191 22.0395 4.5191Z" fill="white"/>
</g>
</g>
</g>
</svg>
