<svg width="36" height="37" viewBox="0 0 36 37" fill="none" xmlns="http://www.w3.org/2000/svg">
<g id="Group">
<path id="Vector" d="M27.7119 7.40707C26.5279 7.40707 25.6399 8.29497 25.6399 9.47883C25.6399 10.6627 26.5279 11.5506 27.7119 11.5506C28.8958 11.5506 29.7838 10.6627 29.7838 9.47883C29.7838 8.29497 28.8958 7.40707 27.7119 7.40707Z" fill="white"/>
<path id="Vector_2" d="M18.388 10.0708C13.5041 10.0708 9.65613 14.0663 9.65613 18.8018C9.65613 23.5372 13.6521 27.5327 18.388 27.5327C23.1239 27.5327 27.1198 23.5372 27.1198 18.8018C27.1198 14.0663 23.2719 10.0708 18.388 10.0708ZM18.388 24.4251C15.28 24.4251 12.7641 21.9094 12.7641 18.8018C12.7641 15.6941 15.28 13.1784 18.388 13.1784C21.4959 13.1784 24.0119 15.6941 24.0119 18.8018C24.0119 21.9094 21.4959 24.4251 18.388 24.4251Z" fill="white"/>
<path id="Vector_3" d="M25.4888 0.895874H11.4291C5.36116 0.895874 0.625244 5.63131 0.625244 11.5506V25.6089C0.625244 31.5282 5.36116 36.2636 11.2811 36.2636H25.3408C31.2607 36.2636 35.9966 31.5282 35.9966 25.6089V11.5506C36.1446 5.63131 31.4087 0.895874 25.4888 0.895874ZM32.7407 25.7569C32.7407 29.7524 29.4847 33.156 25.3408 33.156H11.2811C7.28512 33.156 3.88119 29.9004 3.88119 25.7569V11.6986C3.88119 7.70306 7.13713 4.29947 11.2811 4.29947H25.3408C29.3367 4.29947 32.7407 7.55508 32.7407 11.6986V25.7569Z" fill="white"/>
</g>
</svg>
