<svg width="50" height="50" viewBox="0 0 50 50" fill="none" xmlns="http://www.w3.org/2000/svg">
<g id="Page-1">
<g id="about-white">
<path id="Shape" fill-rule="evenodd" clip-rule="evenodd" d="M25 0.924988C11.7038 0.924988 0.925049 11.7036 0.925049 25C0.925049 38.2962 11.7038 49.075 25 49.075C38.2964 49.075 49.0751 38.2962 49.0751 25C49.0751 11.7036 38.2964 0.924988 25 0.924988ZM25 44.26C14.3801 44.26 5.74005 35.6199 5.74005 25C5.74005 14.38 14.3801 5.73999 25 5.73999C35.6201 5.73999 44.2601 14.38 44.2601 25C44.2601 35.6199 35.6201 44.26 25 44.26ZM28.0147 15.37C28.0147 17.1155 26.7438 18.3794 25.0245 18.3794C23.2357 18.3794 21.9959 17.1155 21.9959 15.3366C21.9959 13.6268 23.2692 12.3606 25.0245 12.3606C26.7438 12.3606 28.0147 13.6268 28.0147 15.37ZM22.5978 22.5925H27.4128V37.0375H22.5978V22.5925Z" fill="white"/>
</g>
</g>
</svg>
