<svg width="53" height="53" viewBox="0 0 53 53" fill="none" xmlns="http://www.w3.org/2000/svg">
<path id="Vector" d="M17.1375 27.8375L21.1739 31.8738C22.0933 32.7932 22.5531 33.253 23.0755 33.4074C23.5345 33.5427 24.0254 33.5205 24.4703 33.344C24.9766 33.1431 25.3929 32.6437 26.2253 31.6446L37.2001 18.475M38.0793 7.12913C40.0559 7.18551 42.0153 7.96792 43.5238 9.4763C45.0319 10.9847 45.8144 12.9442 45.8708 14.9205C45.9267 16.8762 45.9545 17.8541 46.012 18.0817C46.1348 18.5689 45.992 18.2242 46.2496 18.6556C46.37 18.8572 47.0419 19.5684 48.3853 20.9907C49.7429 22.4281 50.5751 24.367 50.5751 26.5C50.5751 28.633 49.7429 30.5719 48.3853 32.0092C47.0419 33.4315 46.37 34.1427 46.2496 34.3444C45.992 34.7757 46.1348 34.4311 46.012 34.9182C45.9545 35.1459 45.9267 36.1239 45.8708 38.0795C45.8144 40.0558 45.0319 42.0153 43.5238 43.5237C42.0153 45.0321 40.0559 45.8146 38.0793 45.8708C36.1236 45.9267 35.1459 45.9545 34.9183 46.012C34.4312 46.1348 34.7757 45.9922 34.3445 46.2498C34.1428 46.3702 33.4315 47.0419 32.0092 48.3853C30.5719 49.7428 28.6331 50.575 26.5001 50.575C24.367 50.575 22.4282 49.7428 20.9908 48.3853C19.5684 47.0419 18.8572 46.3702 18.6557 46.2498C18.2243 45.9922 18.5689 46.1348 18.0817 46.012C17.8541 45.9545 16.8761 45.9267 14.9205 45.8708C12.9442 45.8146 10.9847 45.0321 9.47627 43.5237C7.96784 42.0153 7.18545 40.0558 7.12909 38.0793C7.07329 36.1236 7.04542 35.1459 6.98801 34.9182C6.86515 34.4311 7.00791 34.7757 6.75028 34.3442C6.62994 34.1427 5.95824 33.4315 4.61486 32.0092C3.25732 30.5719 2.42505 28.633 2.42505 26.5C2.42505 24.367 3.25732 22.4281 4.61486 20.9908C5.95824 19.5684 6.62994 18.8572 6.75028 18.6557C7.00791 18.2243 6.86515 18.569 6.98801 18.0818C7.04542 17.8541 7.07329 16.8763 7.12909 14.9206C7.18545 12.9443 7.96784 10.9847 9.47627 9.4763C10.9847 7.9679 12.9442 7.18551 14.9205 7.12913C16.8763 7.07332 17.8541 7.04545 18.0817 6.98805C18.5689 6.86518 18.2243 7.00795 18.6557 6.75032C18.8572 6.62997 19.5685 5.9582 20.9908 4.61484C22.4282 3.25728 24.367 2.425 26.5001 2.425C28.6331 2.425 30.5719 3.2573 32.0092 4.61487C33.4318 5.95825 34.1428 6.62994 34.3445 6.75029C34.7757 7.00792 34.4312 6.86518 34.9183 6.98805C35.1459 7.04542 36.1236 7.07332 38.0793 7.12913Z" stroke="white" stroke-width="4" stroke-linecap="round" stroke-linejoin="round"/>
</svg>
