<svg width="28" height="28" viewBox="0 0 28 28" fill="none" xmlns="http://www.w3.org/2000/svg">
<path id="Vector" d="M24.8734 5.20366V5.1656H24.8462C23.5361 3.55198 21.8824 2.25095 20.0057 1.35733C18.129 0.463707 16.0766 0 13.998 0C11.9193 0 9.86689 0.463707 7.9902 1.35733C6.1135 2.25095 4.45983 3.55198 3.1497 5.1656H3.12387V5.20366C1.1031 7.68999 0 10.7962 0 14C0 17.2038 1.1031 20.31 3.12387 22.7963V22.8344H3.15106C4.46119 24.448 6.11486 25.749 7.99155 26.6427C9.86825 27.5363 11.9207 28 13.9993 28C16.0779 28 18.1304 27.5363 20.0071 26.6427C21.8838 25.749 23.5374 24.448 24.8476 22.8344H24.8761V22.7963C26.8969 20.31 28 17.2038 28 14C28 10.7962 26.8969 7.68999 24.8761 5.20366H24.8734ZM14.6776 5.1656V1.45787C15.483 1.79588 16.2074 2.30125 16.8026 2.94049C17.3979 3.57972 17.8504 4.33819 18.1301 5.1656H14.6776ZM18.667 6.52474C19.3947 8.71838 19.7856 11.0096 19.8265 13.3204H14.6776V6.52474H18.667ZM13.3183 1.45787V5.1656H9.86581C10.1456 4.33819 10.5981 3.57972 11.1933 2.94049C11.7885 2.30125 12.5129 1.79588 13.3183 1.45787ZM13.3183 6.52474V13.3204H8.16945C8.21031 11.0096 8.60124 8.71838 9.3289 6.52474H13.3183ZM6.81155 13.3204H1.39218C1.52098 10.8656 2.36796 8.50255 3.82797 6.52474H7.88401C7.20686 8.72789 6.84669 11.0159 6.81155 13.3204ZM6.81155 14.6796C6.84625 16.9841 7.20732 19.272 7.88401 21.4753H3.82797C2.36796 19.4974 1.52098 17.1344 1.39218 14.6796H6.81155ZM8.17081 14.6796H13.3183V21.4753H9.3289C8.60124 19.2816 8.21031 16.9904 8.16945 14.6796H8.17081ZM13.3183 22.8344V26.5421C12.5129 26.2041 11.7885 25.6987 11.1933 25.0595C10.5981 24.4203 10.1456 23.6618 9.86581 22.8344H13.3183ZM14.6776 26.5421V22.8344H18.1301C17.8504 23.6618 17.3979 24.4203 16.8026 25.0595C16.2074 25.6987 15.483 26.2041 14.6776 26.5421ZM14.6776 21.4753V14.6796H19.8265C19.7856 16.9904 19.3947 19.2816 18.667 21.4753H14.6776ZM21.1844 14.6796H26.6037C26.4749 17.1344 25.628 19.4974 24.168 21.4753H20.1119C20.7891 19.2721 21.1492 16.9841 21.1844 14.6796ZM21.1844 13.3204C21.1497 11.0159 20.7886 8.72795 20.1119 6.52474H24.168C25.628 8.50255 26.4749 10.8656 26.6037 13.3204H21.1844ZM23.0221 5.1656H19.6226C19.1537 3.97875 18.4918 2.87751 17.6639 1.90639C19.6953 2.5258 21.538 3.64666 23.0221 5.1656ZM10.332 1.90639C9.50456 2.87761 8.84321 3.97884 8.3747 5.1656H4.97247C6.45659 3.64666 8.2993 2.5258 10.3307 1.90639H10.332ZM4.97383 22.8344H8.37334C8.84227 24.0213 9.50408 25.1225 10.332 26.0936C8.30066 25.4742 6.45795 24.3533 4.97383 22.8344ZM17.6639 26.0936C18.4914 25.1224 19.1527 24.0212 19.6212 22.8344H23.0221C21.538 24.3533 19.6953 25.4742 17.6639 26.0936Z" fill="white"/>
</svg>
